<svg width="54" height="45" viewBox="0 0 54 45" fill="none" xmlns="http://www.w3.org/2000/svg">
<path fill-rule="evenodd" clip-rule="evenodd" d="M51.3504 0.472622L27.5361 19.6158L31.7718 22.8539C31.7718 22.8539 41.6436 14.9144 47.7044 10.0399C50.5592 7.74394 51.9531 4.08639 51.3504 0.472622Z" fill="#55C2B9" stroke="#55C2B9" stroke-width="0.00261061" stroke-miterlimit="1.5" stroke-linecap="round" stroke-linejoin="round"/>
<path fill-rule="evenodd" clip-rule="evenodd" d="M47.4057 12.3791L33.1302 24.0112L37.3659 27.2489C37.3659 27.2489 40.4011 24.8199 43.2518 22.5386C46.3006 20.0985 47.8717 16.2562 47.4057 12.3791Z" fill="#55C2B9" stroke="#55C2B9" stroke-width="0.00261061" stroke-miterlimit="1.5" stroke-linecap="round" stroke-linejoin="round"/>
<path fill-rule="evenodd" clip-rule="evenodd" d="M43.3738 24.4991L38.6345 28.1801C39.8961 29.421 41.2478 29.9704 42.7216 29.5804C43.3421 28.0636 43.6221 26.2482 43.3738 24.4991Z" fill="#55C2B9" stroke="#55C2B9" stroke-width="0.00261061" stroke-miterlimit="1.5" stroke-linecap="round" stroke-linejoin="round"/>
<path fill-rule="evenodd" clip-rule="evenodd" d="M0.588302 0.519686C0.588302 0.519686 29.7266 23.4504 37.9112 29.8781C39.0115 30.7457 40.378 31.2068 41.7794 31.1896C40.8624 34.0919 36.9786 35.7365 35.137 34.2845L2.2609 8.41428C1.37758 7.7237 0.148252 1.91774 0.588302 0.519686Z" fill="#55C2B9" stroke="#55C2B9" stroke-width="0.00245004" stroke-miterlimit="1.5" stroke-linecap="round" stroke-linejoin="round"/>
<path fill-rule="evenodd" clip-rule="evenodd" d="M4.58733 12.5883C4.58733 12.5883 26.4523 29.6231 33.151 34.8467C34.23 35.6966 35.5607 36.139 36.9297 36.1395C36.5479 37.3429 35.6326 38.3161 34.5609 38.9352C33.0642 39.7842 31.2635 39.9256 30.1889 39.0933L6.25993 20.4829C5.37661 19.7923 4.14728 13.9863 4.58733 12.5883Z" fill="#55C2B9" stroke="#55C2B9" stroke-width="0.00245004" stroke-miterlimit="1.5" stroke-linecap="round" stroke-linejoin="round"/>
<path fill-rule="evenodd" clip-rule="evenodd" d="M8.38274 24.3222C8.38274 24.3222 22.9374 35.7438 28.273 39.9404C29.352 40.7903 30.6839 41.2504 32.0551 41.2332C31.6733 42.4543 30.7581 43.4276 29.6875 44.0289C28.1896 44.8779 26.3889 45.037 25.3155 44.1871L10.0553 32.2168C9.17202 31.5263 7.94269 25.7203 8.38274 24.3222Z" fill="#55C2B9" stroke="#55C2B9" stroke-width="0.00245004" stroke-miterlimit="1.5" stroke-linecap="round" stroke-linejoin="round"/>
</svg>
